<svg xmlns="http://www.w3.org/2000/svg" width="81.065" height="61.154" viewBox="0 0 81.065 61.154">
  <path id="Elements" d="M54.758,55.925c9.782-9.981,6.5-19.762,6.5-19.762A18.263,18.263,0,0,1,42.822,18.08,18.262,18.262,0,0,1,61.26,0,18.537,18.537,0,0,1,75.647,6.776a17.447,17.447,0,0,1,4.04,9.19,44.328,44.328,0,0,1-3.1,21.939C73.232,46.356,62.482,57.3,58.3,60Zm-42.822,0c9.783-9.981,6.5-19.762,6.5-19.762A18.264,18.264,0,0,1,0,18.08,18.264,18.264,0,0,1,18.44,0,18.534,18.534,0,0,1,32.825,6.776a17.413,17.413,0,0,1,4.043,9.19,44.345,44.345,0,0,1-3.1,21.939C30.413,46.356,19.663,57.3,15.476,60Z" transform="translate(0.501 0.5)" fill="#f29f05" stroke="rgba(0,0,0,0)" stroke-miterlimit="10" stroke-width="1"/>
</svg>
