<svg id="Restaurant_Icon" data-name="Restaurant Icon" xmlns="http://www.w3.org/2000/svg" width="68" height="68" viewBox="0 0 68 68">
  <rect id="frame" width="68" height="68" fill="none"/>
  <g id="Elements" transform="translate(1.889 13.222)">
    <path id="Path_2458" data-name="Path 2458" d="M14.73,0A14.471,14.471,0,0,1,29.364,14.441a14.7,14.7,0,0,1-14.73,14.537A14.471,14.471,0,0,1,0,14.537,14.7,14.7,0,0,1,14.73,0Z" transform="translate(15.752 31.771) rotate(-76.824)" fill="none" stroke="#f29f05" stroke-linecap="square" stroke-width="2"/>
    <path id="Path_2454" data-name="Path 2454" d="M744.048,286.772a7.891,7.891,0,0,1,5.284-5.156" transform="translate(-718.284 -268.425)" fill="none" stroke="#f29f05" stroke-linecap="square" stroke-miterlimit="10" stroke-width="2"/>
    <ellipse id="Ellipse_72" data-name="Ellipse 72" cx="20.503" cy="20.778" rx="20.503" ry="20.778" transform="translate(12.699)" fill="none" stroke="#f29f05" stroke-linecap="square" stroke-miterlimit="10" stroke-width="2"/>
    <path id="Path_2455" data-name="Path 2455" d="M788.112,290.833h3.736V269s-3.688.5-5.076,5.748A22.29,22.29,0,0,0,787,286.306" transform="translate(-727.626 -265.823)" fill="none" stroke="#f29f05" stroke-linecap="square" stroke-miterlimit="10" stroke-width="2"/>
    <path id="Path_2459" data-name="Path 2459" d="M0,0H3.936V16.57H0Z" transform="translate(64.222 41.555) rotate(180)" fill="none" stroke="#f29f05" stroke-linecap="square" stroke-width="2"/>
    <path id="Path_2456" data-name="Path 2456" d="M714.03,285.6v25.085h3.936V289.4" transform="translate(-711.596 -269.129)" fill="none" stroke="#f29f05" stroke-linecap="square" stroke-miterlimit="10" stroke-width="2"/>
    <path id="Path_2457" data-name="Path 2457" d="M719.743,271.872v7.506a3.3,3.3,0,0,1-3.3,3.3h-2.2a3.3,3.3,0,0,1-3.3-3.3v-7.506" transform="translate(-710.937 -266.434)" fill="none" stroke="#f29f05" stroke-linecap="square" stroke-miterlimit="10" stroke-width="2"/>
    <line id="Line_27" data-name="Line 27" y1="6.74" transform="translate(4.403 5.438)" fill="none" stroke="#f29f05" stroke-linecap="square" stroke-miterlimit="10" stroke-width="2"/>
  </g>
</svg>
